<svg width="145" height="40" viewBox="0 0 145 40" fill="none" xmlns="http://www.w3.org/2000/svg">
<path d="M51.98 19.2C51.98 17.2773 52.4093 15.56 53.268 14.048C54.1453 12.5173 55.3307 11.332 56.824 10.492C58.336 9.63333 60.0253 9.204 61.892 9.204C64.076 9.204 65.9893 9.764 67.632 10.884C69.2747 12.004 70.4227 13.5533 71.076 15.532H66.568C66.12 14.5987 65.4853 13.8987 64.664 13.432C63.8613 12.9653 62.928 12.732 61.864 12.732C60.7253 12.732 59.708 13.0027 58.812 13.544C57.9347 14.0667 57.244 14.8133 56.74 15.784C56.2547 16.7547 56.012 17.8933 56.012 19.2C56.012 20.488 56.2547 21.6267 56.74 22.616C57.244 23.5867 57.9347 24.3427 58.812 24.884C59.708 25.4067 60.7253 25.668 61.864 25.668C62.928 25.668 63.8613 25.4347 64.664 24.968C65.4853 24.4827 66.12 23.7733 66.568 22.84H71.076C70.4227 24.8373 69.2747 26.396 67.632 27.516C66.008 28.6173 64.0947 29.168 61.892 29.168C60.0253 29.168 58.336 28.748 56.824 27.908C55.3307 27.0493 54.1453 25.864 53.268 24.352C52.4093 22.84 51.98 21.1227 51.98 19.2ZM80.4722 29.252C78.9789 29.252 77.6349 28.9253 76.4402 28.272C75.2455 27.6 74.3029 26.6573 73.6122 25.444C72.9402 24.2307 72.6042 22.8307 72.6042 21.244C72.6042 19.6573 72.9495 18.2573 73.6402 17.044C74.3495 15.8307 75.3109 14.8973 76.5242 14.244C77.7375 13.572 79.0909 13.236 80.5842 13.236C82.0775 13.236 83.4309 13.572 84.6442 14.244C85.8575 14.8973 86.8095 15.8307 87.5002 17.044C88.2095 18.2573 88.5642 19.6573 88.5642 21.244C88.5642 22.8307 88.2002 24.2307 87.4722 25.444C86.7629 26.6573 85.7922 27.6 84.5602 28.272C83.3469 28.9253 81.9842 29.252 80.4722 29.252ZM80.4722 25.836C81.1815 25.836 81.8442 25.668 82.4602 25.332C83.0949 24.9773 83.5989 24.4547 83.9722 23.764C84.3455 23.0733 84.5322 22.2333 84.5322 21.244C84.5322 19.7693 84.1402 18.64 83.3562 17.856C82.5909 17.0533 81.6482 16.652 80.5282 16.652C79.4082 16.652 78.4655 17.0533 77.7002 17.856C76.9535 18.64 76.5802 19.7693 76.5802 21.244C76.5802 22.7187 76.9442 23.8573 77.6722 24.66C78.4189 25.444 79.3522 25.836 80.4722 25.836ZM94.5197 8.28V29H90.5997V8.28H94.5197ZM101.473 8.28V29H97.5526V8.28H101.473ZM103.498 21.188C103.498 19.62 103.806 18.2293 104.422 17.016C105.056 15.8027 105.906 14.8693 106.97 14.216C108.052 13.5627 109.256 13.236 110.582 13.236C111.739 13.236 112.747 13.4693 113.606 13.936C114.483 14.4027 115.183 14.9907 115.706 15.7V13.488H119.654V29H115.706V26.732C115.202 27.46 114.502 28.0667 113.606 28.552C112.728 29.0187 111.711 29.252 110.554 29.252C109.247 29.252 108.052 28.916 106.97 28.244C105.906 27.572 105.056 26.6293 104.422 25.416C103.806 24.184 103.498 22.7747 103.498 21.188ZM115.706 21.244C115.706 20.292 115.519 19.48 115.146 18.808C114.772 18.1173 114.268 17.5947 113.634 17.24C112.999 16.8667 112.318 16.68 111.59 16.68C110.862 16.68 110.19 16.8573 109.574 17.212C108.958 17.5667 108.454 18.0893 108.062 18.78C107.688 19.452 107.502 20.2547 107.502 21.188C107.502 22.1213 107.688 22.9427 108.062 23.652C108.454 24.3427 108.958 24.8747 109.574 25.248C110.208 25.6213 110.88 25.808 111.59 25.808C112.318 25.808 112.999 25.6307 113.634 25.276C114.268 24.9027 114.772 24.38 115.146 23.708C115.519 23.0173 115.706 22.196 115.706 21.244ZM126.562 15.756C127.066 15.0093 127.757 14.4027 128.634 13.936C129.53 13.4693 130.547 13.236 131.686 13.236C133.011 13.236 134.206 13.5627 135.27 14.216C136.353 14.8693 137.202 15.8027 137.818 17.016C138.453 18.2107 138.77 19.6013 138.77 21.188C138.77 22.7747 138.453 24.184 137.818 25.416C137.202 26.6293 136.353 27.572 135.27 28.244C134.206 28.916 133.011 29.252 131.686 29.252C130.529 29.252 129.511 29.028 128.634 28.58C127.775 28.1133 127.085 27.516 126.562 26.788V29H122.642V8.28H126.562V15.756ZM134.766 21.188C134.766 20.2547 134.57 19.452 134.178 18.78C133.805 18.0893 133.301 17.5667 132.666 17.212C132.05 16.8573 131.378 16.68 130.65 16.68C129.941 16.68 129.269 16.8667 128.634 17.24C128.018 17.5947 127.514 18.1173 127.122 18.808C126.749 19.4987 126.562 20.3107 126.562 21.244C126.562 22.1773 126.749 22.9893 127.122 23.68C127.514 24.3707 128.018 24.9027 128.634 25.276C129.269 25.6307 129.941 25.808 130.65 25.808C131.378 25.808 132.05 25.6213 132.666 25.248C133.301 24.8747 133.805 24.3427 134.178 23.652C134.57 22.9613 134.766 22.14 134.766 21.188Z" fill="#292930"/>
<path d="M142.515 29.196C141.805 29.196 141.217 28.9813 140.751 28.552C140.303 28.104 140.079 27.5533 140.079 26.9C140.079 26.2467 140.303 25.7053 140.751 25.276C141.217 24.828 141.805 24.604 142.515 24.604C143.205 24.604 143.775 24.828 144.223 25.276C144.671 25.7053 144.895 26.2467 144.895 26.9C144.895 27.5533 144.671 28.104 144.223 28.552C143.775 28.9813 143.205 29.196 142.515 29.196Z" fill="#5956E9"/>
<rect width="40" height="40" rx="11.4286" fill="white"/>
<circle cx="12.8569" cy="12.8569" r="5.71429" fill="#5956E9"/>
<circle cx="12.8569" cy="27.143" r="5.71429" fill="#FFDEE4"/>
<circle cx="27.143" cy="12.8569" r="5.71429" fill="#FAB8C4"/>
<circle cx="27.143" cy="27.143" r="5.71429" fill="#5956E9"/>
</svg>
