<svg width="24" height="24" viewBox="0 0 24 24" fill="none" xmlns="http://www.w3.org/2000/svg">
<path fill-rule="evenodd" clip-rule="evenodd" d="M3.52783 11.7673C3.52783 7.21705 7.21656 3.52832 11.7668 3.52832C16.3171 3.52832 20.0058 7.21705 20.0058 11.7673C20.0058 16.3176 16.3171 20.0063 11.7668 20.0063C7.21656 20.0063 3.52783 16.3176 3.52783 11.7673ZM11.7668 2.02832C6.38813 2.02832 2.02783 6.38862 2.02783 11.7673C2.02783 17.146 6.38813 21.5063 11.7668 21.5063C14.0673 21.5063 16.1815 20.7087 17.8479 19.3749L21.0124 22.5314C21.3057 22.8239 21.7806 22.8233 22.0731 22.53C22.3656 22.2367 22.365 21.7619 22.0717 21.4693L18.9444 18.35C20.535 16.6166 21.5058 14.3053 21.5058 11.7673C21.5058 6.38862 17.1455 2.02832 11.7668 2.02832Z" fill="#292930"/>
</svg>
